<?xml version="1.0" encoding="UTF-8" standalone="no"?>
<!-- Created with Inkscape (http://www.inkscape.org/) -->

<svg
   width="52.978992mm"
   height="41.007126mm"
   viewBox="0 0 52.978992 41.007126"
   version="1.1"
   id="svg1"
   inkscape:version="1.3.2 (091e20e, 2023-11-25, custom)"
   sodipodi:docname="fogliolavoro.svg"
   inkscape:export-filename="iCloudDrive\iCloud~md~obsidian\Algebra\Immagini\lez21sommavettori.svg"
   inkscape:export-xdpi="96"
   inkscape:export-ydpi="96"
   xmlns:inkscape="http://www.inkscape.org/namespaces/inkscape"
   xmlns:sodipodi="http://sodipodi.sourceforge.net/DTD/sodipodi-0.dtd"
   xmlns="http://www.w3.org/2000/svg"
   xmlns:svg="http://www.w3.org/2000/svg">
  <sodipodi:namedview
     id="namedview1"
     pagecolor="#ffffff"
     bordercolor="#000000"
     borderopacity="0.25"
     inkscape:showpageshadow="2"
     inkscape:pageopacity="0.0"
     inkscape:pagecheckerboard="0"
     inkscape:deskcolor="#d1d1d1"
     inkscape:document-units="mm"
     showgrid="true"
     inkscape:zoom="1.2621856"
     inkscape:cx="434.16752"
     inkscape:cy="118.44534"
     inkscape:window-width="1366"
     inkscape:window-height="697"
     inkscape:window-x="-8"
     inkscape:window-y="-8"
     inkscape:window-maximized="1"
     inkscape:current-layer="layer1"
     inkscape:lockguides="false">
    <inkscape:grid
       id="grid1"
       units="mm"
       originx="-97.371551"
       originy="-6.8172309"
       spacingx="0.99999998"
       spacingy="1"
       empcolor="#0099e5"
       empopacity="0.30196078"
       color="#0099e5"
       opacity="0.14901961"
       empspacing="5"
       dotted="false"
       gridanglex="30"
       gridanglez="30"
       visible="true" />
  </sodipodi:namedview>
  <defs
     id="defs1">
    <marker
       style="overflow:visible"
       id="marker19"
       refX="0"
       refY="0"
       orient="auto-start-reverse"
       inkscape:stockid="Dart arrow"
       markerWidth="1"
       markerHeight="1"
       viewBox="0 0 1 1"
       inkscape:isstock="true"
       inkscape:collect="always"
       preserveAspectRatio="xMidYMid">
      <path
         style="fill:context-stroke;fill-rule:evenodd;stroke:none"
         d="M 0,0 5,-5 -12.5,0 5,5 Z"
         transform="scale(-0.5)"
         id="path19" />
    </marker>
    <marker
       style="overflow:visible"
       id="marker17"
       refX="0"
       refY="0"
       orient="auto-start-reverse"
       inkscape:stockid="Dart arrow"
       markerWidth="1"
       markerHeight="1"
       viewBox="0 0 1 1"
       inkscape:isstock="true"
       inkscape:collect="always"
       preserveAspectRatio="xMidYMid">
      <path
         style="fill:context-stroke;fill-rule:evenodd;stroke:none"
         d="M 0,0 5,-5 -12.5,0 5,5 Z"
         transform="scale(-0.5)"
         id="path17" />
    </marker>
    <marker
       style="overflow:visible"
       id="marker16"
       refX="0"
       refY="0"
       orient="auto-start-reverse"
       inkscape:stockid="Dart arrow"
       markerWidth="1"
       markerHeight="1"
       viewBox="0 0 1 1"
       inkscape:isstock="true"
       inkscape:collect="always"
       preserveAspectRatio="xMidYMid">
      <path
         style="fill:context-stroke;fill-rule:evenodd;stroke:none"
         d="M 0,0 5,-5 -12.5,0 5,5 Z"
         transform="scale(-0.5)"
         id="path16" />
    </marker>
  </defs>
  <g
     inkscape:label="Livello 1"
     inkscape:groupmode="layer"
     id="layer1"
     transform="translate(-97.371554,-6.817231)">
    <g
       id="g26"
       inkscape:export-filename="iCloudDrive\iCloud~md~obsidian\Algebra\Immagini\lez21sommavettori.svg"
       inkscape:export-xdpi="96"
       inkscape:export-ydpi="96"
       transform="translate(14.673621,-69.175642)">
      <path
         style="fill:#00ffff;stroke:#0000ff;stroke-width:0.264999;marker-end:url(#marker16)"
         d="M 85.000001,115 95.000002,84.999995"
         id="path14" />
    </g>
    <path
       style="fill:#00007c;stroke:#000000;stroke-width:0.282334;stroke-dasharray:1.12934, 0.564668;stroke-dashoffset:0"
       d="M 136.44714,40.638072 147.10129,8.6755852"
       id="path14-6" />
    <path
       style="fill:#00007c;stroke:#ffff00;stroke-width:0.264999;marker-end:url(#marker17)"
       d="m 99.673622,45.824358 34.999998,-5"
       id="path15" />
    <path
       style="fill:#00007c;stroke:#000000;stroke-width:0.276676;stroke-dasharray:1.10671, 0.553353;stroke-dashoffset:0"
       d="M 110.17422,14.319188 146.98067,9.1363358"
       id="path15-1" />
    <path
       style="fill:#00ffff;stroke:#00ff00;stroke-width:0.26164;stroke-dasharray:none;stroke-dashoffset:0;marker-end:url(#marker19)"
       d="M 99.676915,45.829843 145.70732,9.9974404"
       id="path18" />
    <g
       inkscape:label=""
       transform="matrix(1.4816825,0,0,1.4816825,97.371555,45.929548)"
       id="g11">
      <g
         fill="#000000"
         fill-opacity="1"
         id="g10"
         transform="matrix(0.352778,0,0,0.352778,-0.901524,-0.663354)">
        <g
           id="g3"
           transform="translate(1.993,5.3959999)">
          <path
             d="m 4.8125,-2.078125 c 0,-0.796875 -0.640625,-1.4375 -1.65625,-1.4375 -1.359375,0 -2.59375,1.125 -2.59375,2.203125 0,0.796875 0.65625,1.421875 1.6875,1.421875 1.328125,0 2.5625,-1.078125 2.5625,-2.1875 z m -2.515625,2 c -0.5,0 -1.15625,-0.265625 -1.15625,-1.15625 0,-1.15625 0.890625,-2.09375 1.953125,-2.09375 0.640625,0 1.1875,0.359375 1.1875,1.109375 0,0.296875 -0.125,0.921875 -0.578125,1.46875 -0.34375,0.390625 -0.875,0.671875 -1.40625,0.671875 z m 0,0"
             id="path3" />
        </g>
      </g>
    </g>
    <g
       inkscape:label=""
       transform="matrix(1.5913761,0,0,1.5913761,135.67362,41.824358)"
       id="g17">
      <g
         fill="#000000"
         fill-opacity="1"
         id="g16"
         transform="matrix(0.352778,0,0,0.352778,-0.884987,-0.646818)">
        <g
           id="g15"
           transform="translate(1.993,5.3959999)">
          <path
             d="m 3.625,-3.4375 c -0.015625,-0.09375 -0.046875,-0.125 -0.15625,-0.125 -0.109375,0 -0.140625,0.03125 -0.1875,0.109375 L 1.328125,-0.625 c -0.21875,0.3125 -0.390625,0.390625 -0.71875,0.40625 -0.09375,0 -0.09375,0.125 -0.09375,0.140625 C 0.515625,-0.015625 0.578125,0 0.59375,0 0.671875,0 0.75,-0.015625 0.828125,-0.015625 c 0.078125,0 0.15625,0 0.25,0 0.09375,0 0.1875,0 0.265625,0 C 1.4375,-0.015625 1.546875,0 1.640625,0 1.671875,0 1.75,0 1.75,-0.140625 1.75,-0.21875 1.6875,-0.21875 1.65625,-0.21875 c -0.03125,0 -0.234375,-0.015625 -0.234375,-0.140625 0,-0.046875 0.0625,-0.140625 0.09375,-0.1875 l 0.375,-0.53125 c 0.015625,-0.03125 0.015625,-0.03125 0.125,-0.03125 h 1.5 C 3.53125,-1.0625 3.53125,-1.03125 3.546875,-0.96875 3.5625,-0.875 3.65625,-0.390625 3.65625,-0.328125 c 0,0.109375 -0.3125,0.109375 -0.328125,0.109375 -0.078125,0 -0.15625,0 -0.15625,0.140625 C 3.171875,-0.03125 3.203125,0 3.265625,0 c 0.09375,0 0.21875,-0.015625 0.328125,-0.015625 0.125,0 0.234375,0 0.359375,0 0.09375,0 0.203125,0 0.3125,0 0.09375,0 0.21875,0.015625 0.3125,0.015625 0.09375,0 0.125,-0.0625 0.125,-0.140625 0,-0.078125 -0.078125,-0.078125 -0.15625,-0.078125 -0.328125,0 -0.328125,-0.046875 -0.34375,-0.15625 z m -0.453125,0.484375 0.3125,1.609375 H 2.0625 Z m 0,0"
             id="path13" />
        </g>
      </g>
    </g>
    <g
       inkscape:label=""
       transform="matrix(1.6643796,0,0,1.6643796,108.67362,11.457382)"
       id="g22">
      <g
         fill="#000000"
         fill-opacity="1"
         id="g21"
         transform="matrix(0.352778,0,0,0.352778,-0.91806,-0.70194)">
        <g
           id="g20"
           transform="translate(1.993,5.3959999)">
          <path
             d="m 1.234375,-0.40625 c -0.03125,0.140625 -0.046875,0.1875 -0.421875,0.1875 -0.125,0 -0.203125,0 -0.203125,0.140625 C 0.609375,0 0.6875,0 0.765625,0 H 2.9375 c 0.890625,0 1.625,-0.5625 1.625,-1.0625 0,-0.296875 -0.296875,-0.640625 -0.96875,-0.71875 0.5,-0.0625 1.203125,-0.390625 1.203125,-0.890625 0,-0.421875 -0.5,-0.734375 -1.171875,-0.734375 H 1.578125 c -0.09375,0 -0.171875,0 -0.171875,0.140625 0,0.078125 0.0625,0.078125 0.171875,0.078125 0.0625,0 0.21875,0 0.328125,0.03125 0,0.0625 0,0.078125 -0.015625,0.125 z M 2.078125,-1.859375 2.375,-3.015625 C 2.40625,-3.171875 2.40625,-3.1875 2.609375,-3.1875 H 3.53125 c 0.484375,0 0.71875,0.265625 0.71875,0.53125 0,0.390625 -0.53125,0.796875 -1.234375,0.796875 z M 1.84375,-0.21875 c -0.046875,0 -0.109375,0 -0.15625,-0.015625 0,-0.046875 0,-0.046875 0,-0.09375 L 2.03125,-1.6875 H 3.25 c 0.515625,0 0.765625,0.296875 0.765625,0.609375 0,0.484375 -0.59375,0.859375 -1.21875,0.859375 z m 0,0"
             id="path20" />
        </g>
      </g>
    </g>
    <g
       inkscape:label=""
       transform="matrix(1.5639412,0,0,1.5639412,147.98848,6.81723)"
       id="g25-4-3">
      <g
         fill="#000000"
         fill-opacity="1"
         id="g24-4-3"
         transform="matrix(0.352778,0,0,0.352778,-0.907036,-0.663354)">
        <g
           id="g23-8-6"
           transform="translate(1.993,5.3959999)">
          <path
             d="m 4.859375,-3.4375 c 0,-0.015625 0,-0.078125 -0.078125,-0.078125 -0.03125,0 -0.03125,0 -0.09375,0.0625 l -0.34375,0.34375 C 4.328125,-3.09375 4.296875,-3.0625 4.28125,-3.0625 c 0,0 -0.015625,-0.015625 -0.015625,-0.015625 -0.109375,-0.109375 -0.40625,-0.4375 -1.0625,-0.4375 -1.375,0 -2.625,1.078125 -2.625,2.171875 0,0.8125 0.6875,1.453125 1.765625,1.453125 0.5,0 0.9375,-0.171875 1.25,-0.359375 0.640625,-0.421875 0.703125,-0.953125 0.703125,-0.953125 0,-0.078125 -0.0625,-0.078125 -0.09375,-0.078125 -0.0625,0 -0.09375,0.015625 -0.109375,0.0625 -0.234375,0.796875 -1.0625,1.109375 -1.625,1.109375 -0.59375,0 -1.34375,-0.25 -1.34375,-1.125 0,-0.5625 0.296875,-1.140625 0.609375,-1.4375 0.578125,-0.546875 1.234375,-0.625 1.546875,-0.625 0.640625,0 1.046875,0.421875 1.046875,1 0,0.109375 -0.015625,0.125 -0.015625,0.15625 0,0.078125 0.0625,0.078125 0.109375,0.078125 0.09375,0 0.09375,-0.015625 0.125,-0.109375 z m 0,0"
             id="path22-8-7" />
        </g>
      </g>
    </g>
    <circle
       style="opacity:0.99;fill:#000000;stroke:#000000;stroke-width:0.266545;stroke-dasharray:none"
       id="path81-1-0-2"
       cx="99.676918"
       cy="45.829842"
       r="0.26322764" />
  </g>
</svg>
