<?xml version="1.0" encoding="UTF-8" standalone="no"?>
<!-- Created with Inkscape (http://www.inkscape.org/) -->

<svg
   width="82.792419mm"
   height="46.914459mm"
   viewBox="0 0 82.792419 46.914459"
   version="1.1"
   id="svg1"
   inkscape:version="1.3.2 (091e20e, 2023-11-25, custom)"
   sodipodi:docname="disegno.svg"
   inkscape:export-filename="iCloudDrive\iCloud~md~obsidian\Algebra\Immagini\lez21vettoreOA.svg"
   inkscape:export-xdpi="96"
   inkscape:export-ydpi="96"
   xmlns:inkscape="http://www.inkscape.org/namespaces/inkscape"
   xmlns:sodipodi="http://sodipodi.sourceforge.net/DTD/sodipodi-0.dtd"
   xmlns="http://www.w3.org/2000/svg"
   xmlns:svg="http://www.w3.org/2000/svg">
  <sodipodi:namedview
     id="namedview1"
     pagecolor="#ffffff"
     bordercolor="#000000"
     borderopacity="0.25"
     inkscape:showpageshadow="2"
     inkscape:pageopacity="0.0"
     inkscape:pagecheckerboard="0"
     inkscape:deskcolor="#d1d1d1"
     inkscape:document-units="mm"
     showgrid="true"
     inkscape:zoom="2.5247521"
     inkscape:cx="466.77849"
     inkscape:cy="238.24121"
     inkscape:window-width="1366"
     inkscape:window-height="697"
     inkscape:window-x="-8"
     inkscape:window-y="-8"
     inkscape:window-maximized="1"
     inkscape:current-layer="layer1"
     inkscape:lockguides="false">
    <inkscape:grid
       id="grid1"
       units="mm"
       originx="-82.945314"
       originy="-50.015923"
       spacingx="0.99999998"
       spacingy="1"
       empcolor="#0099e5"
       empopacity="0.30196078"
       color="#0099e5"
       opacity="0.14901961"
       empspacing="5"
       dotted="false"
       gridanglex="30"
       gridanglez="30"
       visible="true" />
  </sodipodi:namedview>
  <defs
     id="defs1">
    <marker
       style="overflow:visible"
       id="DartArrow"
       refX="0"
       refY="0"
       orient="auto-start-reverse"
       inkscape:stockid="Dart arrow"
       markerWidth="1"
       markerHeight="1"
       viewBox="0 0 1 1"
       inkscape:isstock="true"
       inkscape:collect="always"
       preserveAspectRatio="xMidYMid">
      <path
         style="fill:context-stroke;fill-rule:evenodd;stroke:none"
         d="M 0,0 5,-5 -12.5,0 5,5 Z"
         transform="scale(-0.5)"
         id="path6" />
    </marker>
  </defs>
  <g
     inkscape:label="Livello 1"
     inkscape:groupmode="layer"
     id="layer1"
     transform="translate(-82.945314,-50.015925)">
    <path
       style="fill:#00007c;stroke:#000000;stroke-width:0.739616;marker-end:url(#DartArrow)"
       d="M 95.165385,88.15698 150.98568,60.24683"
       id="path1"
       inkscape:export-filename="iCloudDrive\iCloud~md~obsidian\Algebra\Immagini\path1.svg"
       inkscape:export-xdpi="96"
       inkscape:export-ydpi="96" />
    <g
       inkscape:label=""
       transform="matrix(3.4648649,0,0,3.0866768,119.74781,79.425314)"
       id="g2">
      <g
         fill="#000000"
         fill-opacity="1"
         id="g5"
         transform="matrix(0.352778,0,0,0.352778,-0.873963,-0.195527)">
        <g
           id="use4"
           transform="translate(1.993,5.6479998)">
          <path
             d="m 6.5625,-2.296875 c 0.171875,0 0.359375,0 0.359375,-0.203125 0,-0.1875 -0.1875,-0.1875 -0.359375,-0.1875 H 1.171875 c -0.171875,0 -0.34375,0 -0.34375,0.1875 0,0.203125 0.171875,0.203125 0.34375,0.203125 z m 0,0"
             id="path8" />
        </g>
      </g>
      <g
         fill="#000000"
         fill-opacity="1"
         id="g6"
         transform="matrix(0.352778,0,0,0.352778,-0.873963,-0.195527)">
        <g
           id="use5"
           transform="translate(7.380774,5.6479998)">
          <path
             d="M 8.3125,-2.296875 C 7.765625,-1.875 7.5,-1.46875 7.421875,-1.328125 c -0.453125,0.6875 -0.53125,1.3125 -0.53125,1.3125 0,0.125 0.125,0.125 0.203125,0.125 C 7.25,0.109375 7.265625,0.09375 7.3125,-0.09375 7.53125,-1.0625 8.125,-1.90625 9.25,-2.359375 9.375,-2.40625 9.40625,-2.421875 9.40625,-2.5 c 0,-0.0625 -0.0625,-0.09375 -0.078125,-0.109375 C 8.875,-2.765625 7.671875,-3.265625 7.296875,-4.9375 7.265625,-5.0625 7.25,-5.09375 7.09375,-5.09375 c -0.078125,0 -0.203125,0 -0.203125,0.125 0,0.015625 0.09375,0.640625 0.5,1.3125 0.203125,0.296875 0.5,0.640625 0.921875,0.96875 H 0.90625 c -0.171875,0 -0.359375,0 -0.359375,0.1875 0,0.203125 0.1875,0.203125 0.359375,0.203125 z m 0,0"
             id="path9" />
        </g>
      </g>
      <g
         fill="#000000"
         fill-opacity="1"
         id="g7"
         transform="matrix(0.352778,0,0,0.352778,-0.873963,-0.195527)">
        <g
           id="use6"
           transform="translate(1.993,12.455)">
          <path
             d="m 7.375,-4.34375 c 0,-1.609375 -1.0625,-2.6875 -2.546875,-2.6875 -2.140625,0 -4.34375,2.265625 -4.34375,4.59375 0,1.65625 1.125,2.65625 2.5625,2.65625 2.109375,0 4.328125,-2.1875 4.328125,-4.5625 z m -4.28125,4.296875 c -0.984375,0 -1.671875,-0.796875 -1.671875,-2.109375 0,-0.453125 0.140625,-1.90625 0.90625,-3.0625 0.6875,-1.046875 1.65625,-1.5625 2.453125,-1.5625 0.8125,0 1.703125,0.5625 1.703125,2.046875 0,0.71875 -0.265625,2.265625 -1.25,3.5 C 4.75,-0.625 3.9375,-0.046875 3.09375,-0.046875 Z m 0,0"
             id="path10" />
        </g>
      </g>
      <g
         fill="#000000"
         fill-opacity="1"
         id="g8"
         transform="matrix(0.352778,0,0,0.352778,-0.873963,-0.195527)">
        <g
           id="use7"
           transform="translate(9.8714237,12.455)">
          <path
             d="M 1.78125,-1.140625 C 1.390625,-0.484375 1,-0.34375 0.5625,-0.3125 0.4375,-0.296875 0.34375,-0.296875 0.34375,-0.109375 0.34375,-0.046875 0.40625,0 0.484375,0 0.75,0 1.0625,-0.03125 1.328125,-0.03125 c 0.34375,0 0.6875,0.03125 1,0.03125 0.0625,0 0.1875,0 0.1875,-0.1875 0,-0.109375 -0.078125,-0.125 -0.15625,-0.125 -0.21875,-0.015625 -0.46875,-0.09375 -0.46875,-0.34375 0,-0.125 0.0625,-0.234375 0.140625,-0.375 l 0.765625,-1.265625 h 2.5 c 0.015625,0.203125 0.15625,1.5625 0.15625,1.65625 0,0.296875 -0.515625,0.328125 -0.71875,0.328125 C 4.59375,-0.3125 4.5,-0.3125 4.5,-0.109375 4.5,0 4.609375,0 4.640625,0 5.046875,0 5.46875,-0.03125 5.875,-0.03125 6.125,-0.03125 6.765625,0 7.015625,0 7.0625,0 7.1875,0 7.1875,-0.203125 7.1875,-0.3125 7.09375,-0.3125 6.953125,-0.3125 6.34375,-0.3125 6.34375,-0.375 6.3125,-0.671875 l -0.609375,-6.21875 c -0.015625,-0.203125 -0.015625,-0.25 -0.1875,-0.25 -0.15625,0 -0.203125,0.078125 -0.265625,0.171875 z M 2.984375,-2.609375 4.9375,-5.90625 5.265625,-2.609375 Z m 0,0"
             id="path11" />
        </g>
      </g>
    </g>
    <g
       inkscape:label=""
       transform="matrix(6.3673669,0,0,6.3673669,82.945319,88.78766)"
       id="g9">
      <g
         fill="#000000"
         fill-opacity="1"
         id="g4"
         transform="matrix(0.352778,0,0,0.352778,-0.901524,-0.663354)">
        <g
           id="use1"
           transform="translate(1.993,5.3959999)">
          <path
             d="m 4.8125,-2.078125 c 0,-0.796875 -0.640625,-1.4375 -1.65625,-1.4375 -1.359375,0 -2.59375,1.125 -2.59375,2.203125 0,0.796875 0.65625,1.421875 1.6875,1.421875 1.328125,0 2.5625,-1.078125 2.5625,-2.1875 z m -2.515625,2 c -0.5,0 -1.15625,-0.265625 -1.15625,-1.15625 0,-1.15625 0.890625,-2.09375 1.953125,-2.09375 0.640625,0 1.1875,0.359375 1.1875,1.109375 0,0.296875 -0.125,0.921875 -0.578125,1.46875 -0.34375,0.390625 -0.875,0.671875 -1.40625,0.671875 z m 0,0"
             id="path2" />
        </g>
      </g>
    </g>
    <g
       inkscape:label=""
       transform="matrix(6.3675857,0,0,6.3675857,156.33117,50.01592)"
       id="g14">
      <g
         fill="#000000"
         fill-opacity="1"
         id="g13"
         transform="matrix(0.352778,0,0,0.352778,-0.884987,-0.646818)">
        <g
           id="g12"
           transform="translate(1.993,5.3959999)">
          <path
             d="m 3.625,-3.4375 c -0.015625,-0.09375 -0.046875,-0.125 -0.15625,-0.125 -0.109375,0 -0.140625,0.03125 -0.1875,0.109375 L 1.328125,-0.625 c -0.21875,0.3125 -0.390625,0.390625 -0.71875,0.40625 -0.09375,0 -0.09375,0.125 -0.09375,0.140625 C 0.515625,-0.015625 0.578125,0 0.59375,0 0.671875,0 0.75,-0.015625 0.828125,-0.015625 c 0.078125,0 0.15625,0 0.25,0 0.09375,0 0.1875,0 0.265625,0 C 1.4375,-0.015625 1.546875,0 1.640625,0 1.671875,0 1.75,0 1.75,-0.140625 1.75,-0.21875 1.6875,-0.21875 1.65625,-0.21875 c -0.03125,0 -0.234375,-0.015625 -0.234375,-0.140625 0,-0.046875 0.0625,-0.140625 0.09375,-0.1875 l 0.375,-0.53125 c 0.015625,-0.03125 0.015625,-0.03125 0.125,-0.03125 h 1.5 C 3.53125,-1.0625 3.53125,-1.03125 3.546875,-0.96875 3.5625,-0.875 3.65625,-0.390625 3.65625,-0.328125 c 0,0.109375 -0.3125,0.109375 -0.328125,0.109375 -0.078125,0 -0.15625,0 -0.15625,0.140625 C 3.171875,-0.03125 3.203125,0 3.265625,0 c 0.09375,0 0.21875,-0.015625 0.328125,-0.015625 0.125,0 0.234375,0 0.359375,0 0.09375,0 0.203125,0 0.3125,0 0.09375,0 0.21875,0.015625 0.3125,0.015625 0.09375,0 0.125,-0.0625 0.125,-0.140625 0,-0.078125 -0.078125,-0.078125 -0.15625,-0.078125 -0.328125,0 -0.328125,-0.046875 -0.34375,-0.15625 z m -0.453125,0.484375 0.3125,1.609375 H 2.0625 Z m 0,0"
             id="path12" />
        </g>
      </g>
    </g>
  </g>
</svg>
