<?xml version="1.0" encoding="UTF-8" standalone="no"?>
<!-- Created with Inkscape (http://www.inkscape.org/) -->

<svg
   width="31.195688mm"
   height="24.694214mm"
   viewBox="0 0 31.195688 24.694214"
   version="1.1"
   id="svg1"
   inkscape:version="1.3.2 (091e20e, 2023-11-25, custom)"
   sodipodi:docname="fogliolavoro.svg"
   inkscape:export-filename="iCloudDrive\iCloud~md~obsidian\Algebra\Immagini\lez21prodottovettscal.svg"
   inkscape:export-xdpi="191.31766"
   inkscape:export-ydpi="191.31766"
   xmlns:inkscape="http://www.inkscape.org/namespaces/inkscape"
   xmlns:sodipodi="http://sodipodi.sourceforge.net/DTD/sodipodi-0.dtd"
   xmlns="http://www.w3.org/2000/svg"
   xmlns:svg="http://www.w3.org/2000/svg">
  <sodipodi:namedview
     id="namedview1"
     pagecolor="#ffffff"
     bordercolor="#000000"
     borderopacity="0.25"
     inkscape:showpageshadow="2"
     inkscape:pageopacity="0.0"
     inkscape:pagecheckerboard="0"
     inkscape:deskcolor="#d1d1d1"
     inkscape:document-units="mm"
     showgrid="true"
     inkscape:zoom="3.57"
     inkscape:cx="684.87395"
     inkscape:cy="157.28291"
     inkscape:window-width="1366"
     inkscape:window-height="697"
     inkscape:window-x="-8"
     inkscape:window-y="-8"
     inkscape:window-maximized="1"
     inkscape:current-layer="layer1"
     inkscape:lockguides="false">
    <inkscape:grid
       id="grid1"
       units="mm"
       originx="-172.26638"
       originy="-34.802956"
       spacingx="0.99999998"
       spacingy="1"
       empcolor="#0099e5"
       empopacity="0.30196078"
       color="#0099e5"
       opacity="0.14901961"
       empspacing="5"
       dotted="false"
       gridanglex="30"
       gridanglez="30"
       visible="true" />
  </sodipodi:namedview>
  <defs
     id="defs1">
    <marker
       style="overflow:visible"
       id="ConcaveTriangle"
       refX="0"
       refY="0"
       orient="auto-start-reverse"
       inkscape:stockid="Concave triangle arrow"
       markerWidth="1"
       markerHeight="1"
       viewBox="0 0 1 1"
       inkscape:isstock="true"
       inkscape:collect="always"
       preserveAspectRatio="xMidYMid">
      <path
         transform="scale(0.7)"
         d="M -2,-4 9,0 -2,4 c 2,-2.33 2,-5.66 0,-8 z"
         style="fill:context-stroke;fill-rule:evenodd;stroke:none"
         id="path7" />
    </marker>
    <marker
       style="overflow:visible"
       id="marker70-2-2"
       refX="0"
       refY="0"
       orient="auto-start-reverse"
       inkscape:stockid="Concave triangle arrow"
       markerWidth="1"
       markerHeight="1"
       viewBox="0 0 1 1"
       inkscape:isstock="true"
       inkscape:collect="always"
       preserveAspectRatio="xMidYMid">
      <path
         transform="scale(0.7)"
         d="M -2,-4 9,0 -2,4 c 2,-2.33 2,-5.66 0,-8 z"
         style="fill:context-stroke;fill-rule:evenodd;stroke:none"
         id="path70-3-7" />
    </marker>
  </defs>
  <g
     inkscape:label="Livello 1"
     inkscape:groupmode="layer"
     id="layer1"
     transform="translate(-172.26638,-34.802955)">
    <g
       id="g103"
       transform="matrix(1.2770212,0,0,1.2770212,-61.755073,-7.0250924)">
      <g
         inkscape:label=""
         transform="matrix(1.4816825,0,0,1.4816825,194.98431,45.455741)"
         id="g11-5-9-6"
         inkscape:export-filename="iCloudDrive\iCloud~md~obsidian\Algebra\Immagini\lez21prodottovettscalneg.svg"
         inkscape:export-xdpi="96"
         inkscape:export-ydpi="96">
        <g
           fill="#000000"
           fill-opacity="1"
           id="g10-6-4-1"
           transform="matrix(0.352778,0,0,0.352778,-0.901524,-0.663354)">
          <g
             id="g3-7-7-5"
             transform="translate(1.993,5.3959999)">
            <path
               d="m 4.8125,-2.078125 c 0,-0.796875 -0.640625,-1.4375 -1.65625,-1.4375 -1.359375,0 -2.59375,1.125 -2.59375,2.203125 0,0.796875 0.65625,1.421875 1.6875,1.421875 1.328125,0 2.5625,-1.078125 2.5625,-2.1875 z m -2.515625,2 c -0.5,0 -1.15625,-0.265625 -1.15625,-1.15625 0,-1.15625 0.890625,-2.09375 1.953125,-2.09375 0.640625,0 1.1875,0.359375 1.1875,1.109375 0,0.296875 -0.125,0.921875 -0.578125,1.46875 -0.34375,0.390625 -0.875,0.671875 -1.40625,0.671875 z m 0,0"
               id="path3-8-7-5" />
          </g>
        </g>
      </g>
      <g
         inkscape:label=""
         transform="matrix(1.6643796,0,0,1.6643796,187.58716,50.091741)"
         id="g22-5-5">
        <g
           fill="#000000"
           fill-opacity="1"
           id="g21-3-6"
           transform="matrix(0.352778,0,0,0.352778,-0.91806,-0.70194)">
          <g
             id="g20-2-2"
             transform="translate(1.993,5.3959999)">
            <path
               d="m 1.234375,-0.40625 c -0.03125,0.140625 -0.046875,0.1875 -0.421875,0.1875 -0.125,0 -0.203125,0 -0.203125,0.140625 C 0.609375,0 0.6875,0 0.765625,0 H 2.9375 c 0.890625,0 1.625,-0.5625 1.625,-1.0625 0,-0.296875 -0.296875,-0.640625 -0.96875,-0.71875 0.5,-0.0625 1.203125,-0.390625 1.203125,-0.890625 0,-0.421875 -0.5,-0.734375 -1.171875,-0.734375 H 1.578125 c -0.09375,0 -0.171875,0 -0.171875,0.140625 0,0.078125 0.0625,0.078125 0.171875,0.078125 0.0625,0 0.21875,0 0.328125,0.03125 0,0.0625 0,0.078125 -0.015625,0.125 z M 2.078125,-1.859375 2.375,-3.015625 C 2.40625,-3.171875 2.40625,-3.1875 2.609375,-3.1875 H 3.53125 c 0.484375,0 0.71875,0.265625 0.71875,0.53125 0,0.390625 -0.53125,0.796875 -1.234375,0.796875 z M 1.84375,-0.21875 c -0.046875,0 -0.109375,0 -0.15625,-0.015625 0,-0.046875 0,-0.046875 0,-0.09375 L 2.03125,-1.6875 H 3.25 c 0.515625,0 0.765625,0.296875 0.765625,0.609375 0,0.484375 -0.59375,0.859375 -1.21875,0.859375 z m 0,0"
               id="path20-3-4" />
          </g>
        </g>
      </g>
      <g
         inkscape:label=""
         transform="matrix(1.5913761,0,0,1.5913761,205.33334,32.754387)"
         id="g17-7-9">
        <g
           fill="#000000"
           fill-opacity="1"
           id="g16-6-6"
           transform="matrix(0.352778,0,0,0.352778,-0.884987,-0.646818)">
          <g
             id="g15-1-0"
             transform="translate(1.993,5.3959999)">
            <path
               d="m 3.625,-3.4375 c -0.015625,-0.09375 -0.046875,-0.125 -0.15625,-0.125 -0.109375,0 -0.140625,0.03125 -0.1875,0.109375 L 1.328125,-0.625 c -0.21875,0.3125 -0.390625,0.390625 -0.71875,0.40625 -0.09375,0 -0.09375,0.125 -0.09375,0.140625 C 0.515625,-0.015625 0.578125,0 0.59375,0 0.671875,0 0.75,-0.015625 0.828125,-0.015625 c 0.078125,0 0.15625,0 0.25,0 0.09375,0 0.1875,0 0.265625,0 C 1.4375,-0.015625 1.546875,0 1.640625,0 1.671875,0 1.75,0 1.75,-0.140625 1.75,-0.21875 1.6875,-0.21875 1.65625,-0.21875 c -0.03125,0 -0.234375,-0.015625 -0.234375,-0.140625 0,-0.046875 0.0625,-0.140625 0.09375,-0.1875 l 0.375,-0.53125 c 0.015625,-0.03125 0.015625,-0.03125 0.125,-0.03125 h 1.5 C 3.53125,-1.0625 3.53125,-1.03125 3.546875,-0.96875 3.5625,-0.875 3.65625,-0.390625 3.65625,-0.328125 c 0,0.109375 -0.3125,0.109375 -0.328125,0.109375 -0.078125,0 -0.15625,0 -0.15625,0.140625 C 3.171875,-0.03125 3.203125,0 3.265625,0 c 0.09375,0 0.21875,-0.015625 0.328125,-0.015625 0.125,0 0.234375,0 0.359375,0 0.09375,0 0.203125,0 0.3125,0 0.09375,0 0.21875,0.015625 0.3125,0.015625 0.09375,0 0.125,-0.0625 0.125,-0.140625 0,-0.078125 -0.078125,-0.078125 -0.15625,-0.078125 -0.328125,0 -0.328125,-0.046875 -0.34375,-0.15625 z m -0.453125,0.484375 0.3125,1.609375 H 2.0625 Z m 0,0"
               id="path13-2-8" />
          </g>
        </g>
      </g>
      <path
         style="fill:#003380;stroke:#003380;stroke-width:0.264999;stroke-dasharray:none;marker-start:url(#ConcaveTriangle)"
         d="m 191.251,48.736077 3.84279,-3.829681"
         id="path80-8"
         sodipodi:nodetypes="cc" />
      <path
         style="fill:#ff00ff;stroke:#000080;stroke-width:0.264999;stroke-dasharray:none;marker-end:url(#marker70-2-2)"
         d="m 195.09379,44.906396 8.88115,-8.897975"
         id="path80-3-6"
         sodipodi:nodetypes="cc" />
      <circle
         style="opacity:0.99;fill:#000000;stroke:#000000;stroke-width:0.266545;stroke-dasharray:none"
         id="path81"
         cx="195"
         cy="45"
         r="0.26322764" />
      <path
         style="fill:#ff00ff;stroke:#000000;stroke-width:0.264999;stroke-dasharray:none"
         d="m 193.20831,44.8863 0.60785,2.762339"
         id="path78-5-0-93" />
      <path
         style="fill:#ff00ff;stroke:#000000;stroke-width:0.264999;stroke-dasharray:none"
         d="m 192.61923,45.807795 0.60785,2.762339"
         id="path78-8-3-2-3" />
      <path
         style="fill:#ff00ff;stroke:#000000;stroke-width:0.264999;stroke-dasharray:none"
         d="m 197.4974,40.600268 0.60785,2.762339"
         id="path78-5-0-9-7" />
      <path
         style="fill:#ff00ff;stroke:#000000;stroke-width:0.264999;stroke-dasharray:none"
         d="m 196.90832,41.521763 0.60785,2.762339"
         id="path78-8-3-2-2-8" />
      <path
         style="fill:#ff00ff;stroke:#000000;stroke-width:0.264999;stroke-dasharray:none"
         d="m 201.69608,36.209185 0.60785,2.762339"
         id="path78-5-0-9-2-2" />
      <path
         style="fill:#ff00ff;stroke:#000000;stroke-width:0.264999;stroke-dasharray:none"
         d="m 201.107,37.13068 0.60785,2.762339"
         id="path78-8-3-2-2-2-2" />
      <g
         inkscape:label=""
         transform="matrix(1.6315989,0,0,1.6315989,183.25573,36.116665)"
         id="g101">
        <g
           fill="#000000"
           fill-opacity="1"
           id="g94"
           transform="matrix(0.352778,0,0,0.352778,-0.91806,-0.666926)">
          <g
             id="g93"
             transform="translate(1.993,7.1329999)">
            <path
               d="M 2.421875,-1.421875 C 2.65625,-0.96875 3.0625,-0.15625 3.09375,-0.078125 3.140625,-0.03125 3.203125,0 3.21875,0.015625 3.296875,0.0625 3.3125,0.0625 3.421875,0.0625 H 3.53125 c 0.09375,0 0.15625,0 0.15625,-0.078125 0,-0.03125 -0.015625,-0.046875 -0.03125,-0.0625 -0.0625,-0.046875 -0.109375,-0.125 -0.140625,-0.21875 L 2.046875,-3.15625 c -0.09375,-0.1875 -0.25,-0.296875 -0.71875,-0.296875 -0.109375,0 -0.1875,0 -0.1875,0.078125 0,0.078125 0.0625,0.078125 0.125,0.078125 0.203125,0.03125 0.3125,0.21875 0.390625,0.359375 l 0.234375,0.484375 C 1.984375,-2.265625 2.234375,-1.8125 2.3125,-1.625 L 0.71875,-0.328125 C 0.6875,-0.296875 0.609375,-0.21875 0.609375,-0.125 c 0,0.109375 0.078125,0.1875 0.1875,0.1875 0.09375,0 0.140625,-0.046875 0.1875,-0.09375 z m 0,0"
               id="path92" />
          </g>
        </g>
        <g
           fill="#000000"
           fill-opacity="1"
           id="g96"
           transform="matrix(0.352778,0,0,0.352778,-0.91806,-0.666926)">
          <g
             id="g95"
             transform="translate(8.2150002,7.1329999)">
            <path
               d="m 4.4375,-1.703125 c 0.078125,0 0.203125,0 0.203125,-0.140625 0,-0.140625 -0.15625,-0.140625 -0.21875,-0.140625 h -3.71875 c -0.078125,0 -0.21875,0 -0.21875,0.140625 0,0.140625 0.125,0.140625 0.1875,0.140625 z m -0.015625,1.1875 c 0.0625,0 0.21875,0 0.21875,-0.140625 0,-0.140625 -0.125,-0.140625 -0.203125,-0.140625 H 0.671875 c -0.0625,0 -0.1875,0 -0.1875,0.140625 0,0.140625 0.140625,0.140625 0.21875,0.140625 z m 0,0"
               id="path94" />
          </g>
        </g>
        <g
           fill="#000000"
           fill-opacity="1"
           id="g98"
           transform="matrix(0.352778,0,0,0.352778,-0.91806,-0.666926)">
          <g
             id="g97"
             transform="translate(15.372,7.1329999)">
            <path
               d="m 4.390625,-1.109375 c 0.078125,0 0.203125,0 0.203125,-0.140625 0,-0.140625 -0.125,-0.140625 -0.203125,-0.140625 h -3.375 c -0.078125,0 -0.21875,0 -0.21875,0.140625 0,0.140625 0.140625,0.140625 0.21875,0.140625 z m 0,0"
               id="path96" />
          </g>
        </g>
        <g
           fill="#000000"
           fill-opacity="1"
           id="g99"
           transform="matrix(0.352778,0,0,0.352778,-0.91806,-0.666926)">
          <g
             id="use8"
             transform="translate(21.964001,5.2030001)">
            <path
               d="M 1.984375,-3.171875 C 1.984375,-3.3125 1.96875,-3.3125 1.796875,-3.3125 1.453125,-3 0.890625,-3 0.796875,-3 H 0.71875 v 0.21875 h 0.078125 c 0.109375,0 0.4375,-0.015625 0.734375,-0.140625 v 2.5 c 0,0.140625 0,0.203125 -0.53125,0.203125 H 0.75 V 0 c 0.265625,-0.015625 0.71875,-0.015625 1,-0.015625 0.296875,0 0.734375,0 1.015625,0.015625 v -0.21875 h -0.25 c -0.53125,0 -0.53125,-0.0625 -0.53125,-0.203125 z m 0,0"
               id="path98" />
          </g>
        </g>
        <path
           fill="none"
           stroke-width="0.145"
           stroke-linecap="butt"
           stroke-linejoin="miter"
           stroke="#000000"
           stroke-opacity="1"
           stroke-miterlimit="10"
           d="m 19.362469,3.9962187 h 3.390625"
           id="path99"
           transform="scale(0.352778)" />
        <g
           fill="#000000"
           fill-opacity="1"
           id="g100"
           transform="matrix(0.352778,0,0,0.352778,-0.91806,-0.666926)">
          <g
             id="use9"
             transform="translate(21.964001,9.7819996)">
            <path
               d="M 2.9375,-0.96875 H 2.71875 c 0,0.09375 -0.0625,0.40625 -0.140625,0.453125 -0.03125,0.03125 -0.453125,0.03125 -0.53125,0.03125 H 1.078125 C 1.40625,-0.71875 1.765625,-1 2.0625,-1.203125 c 0.453125,-0.3125 0.875,-0.59375 0.875,-1.125 0,-0.640625 -0.609375,-0.984375 -1.3125,-0.984375 -0.671875,0 -1.171875,0.375 -1.171875,0.875 0,0.25 0.21875,0.296875 0.296875,0.296875 0.125,0 0.28125,-0.09375 0.28125,-0.296875 0,-0.171875 -0.125,-0.28125 -0.28125,-0.28125 0.140625,-0.234375 0.4375,-0.375 0.765625,-0.375 0.484375,0 0.890625,0.28125 0.890625,0.765625 0,0.421875 -0.296875,0.75 -0.671875,1.0625 l -1.21875,1.03125 C 0.46875,-0.1875 0.453125,-0.1875 0.453125,-0.15625 V 0 h 2.3125 z m 0,0"
               id="path100" />
          </g>
        </g>
      </g>
    </g>
  </g>
</svg>
